<svg xmlns="http://www.w3.org/2000/svg" version="1.1" xmlns:xlink="http://www.w3.org/1999/xlink" xmlns:svgjs="http://svgjs.dev/svgjs" width="128" height="128" viewBox="0 0 128 128"><g transform="matrix(0.8046875,0,0,0.8046875,12.760913568682753,34.13604199265332)"><svg viewBox="0 0 95 55" data-background-color="#fdf8f1" preserveAspectRatio="xMidYMid meet" height="74" width="128" xmlns="http://www.w3.org/2000/svg" xmlns:xlink="http://www.w3.org/1999/xlink"><g id="tight-bounds" transform="matrix(1,0,0,1,-0.24035156286541337,0.08375570820419398)"><svg viewBox="0 0 95.481 54.83263574132078" height="54.83263574132078" width="95.481"><g><svg viewBox="0 0 95.481 54.83263574132078" height="54.83263574132078" width="95.481"><g><svg viewBox="0 0 95.481 54.83263574132078" height="54.83263574132078" width="95.481"><g id="textblocktransform"><svg viewBox="0 0 95.481 54.83263574132078" height="54.83263574132078" width="95.481" id="textblock"><g><svg viewBox="0 0 95.481 54.83263574132078" height="54.83263574132078" width="95.481"><g><svg viewBox="0 0 95.481 54.83263574132078" height="54.83263574132078" width="95.481"><g><svg xmlns="http://www.w3.org/2000/svg" xmlns:xlink="http://www.w3.org/1999/xlink" xml:space="preserve" style="shape-rendering:geometricPrecision;text-rendering:geometricPrecision;image-rendering:optimizeQuality;" viewBox="0.00005075480770748626 0.00006680641838767432 65.40854533864807 37.56268724587881" x="0" y="0" fill-rule="evenodd" clip-rule="evenodd" width="95.481" height="54.83263574132078" class="icon-icon-0" data-fill-palette-color="accent" id="icon-0"><g fill="#fa4238" data-fill-palette-color="accent"><path class="" d="M2.847 3.071c0.092 0.554 0.181 1.112 0.263 1.672 0.644 4.357 0.929 8.884-0.487 13.044-1.268 3.722-2.427 7.315-2.199 11.226-0.036 0.811-0.289 1.237-0.346 2.074-0.035 0.507-0.056 1.004-0.069 1.404-0.034 1.066 0.025 1.354 0.206 2.153 0.077 0.346 0.226 0.477 0.447 0.595 2.316 1.301 7.567 1.889 11.119 1.742 0.863-0.036 1.625-0.067 2.2-0.071 0.007 0 0.015 0 0.023 0 2.856-0.106 6.939-0.168 10.881-0.137 3.223 0.026 6.359 0.115 8.659 0.294l0 0c2.422 0.245 4.323 0.379 6.212 0.444 1.882 0.065 3.75 0.061 6.112 0.029 3.196 0.039 6.859-0.46 10.159-1.168 3.737-0.801 7.03-1.875 8.669-2.741 0.473-0.233 0.563-0.567 0.625-0.907 0.082-0.722 0.119-1.48 0.055-2.31-0.065-0.852-0.236-1.778-0.571-2.818-0.101-0.298-0.294-0.726-0.725-1.021-2.321-1.673-5.456-1.304-8.159-1.264-0.458 0.012-0.977 0.069-1.473 0.087l-0.006-0.009c-0.095 0.004-0.191 0.007-0.286 0.01-0.452-0.095-1.415-0.314-2.232-0.5-0.749-0.171-1.19 0.55-1.318 1.236-0.005 0.044-0.013 0.087-0.021 0.131-0.155 0.753-0.857 1.267-1.642 1.153-0.786-0.113-1.317-0.856-1.215-1.658 0.12-0.948-0.048-1.94-1.513-2.426-0.44-0.146-0.833-0.309-1.226-0.479-1.21-0.52-1.981-0.324-2.694 1.401-0.017 0.041-0.036 0.08-0.055 0.12-0.351 0.684-1.166 0.99-1.893 0.669-0.726-0.32-1.087-1.196-0.748-1.93 0.593-1.285 0.932-2.294-0.522-3.114-0.325-0.184-0.621-0.391-0.928-0.575-1.057-0.634-1.886-1.191-3.216 0.324l-0.601 0.741c-0.027 0.035-0.056 0.068-0.085 0.101-0.522 0.565-1.4 0.632-2.003 0.138-0.625-0.512-0.717-1.435-0.204-2.06 0.161-0.196 0.32-0.395 0.483-0.59 0.789-0.947 1.364-2.084-0.328-3.697-1.139-1.086-1.879-1.567-3.77 0.002l-0.628 0.528c-0.033 0.029-0.068 0.056-0.103 0.083-0.619 0.456-1.494 0.355-1.993-0.244-0.517-0.622-0.432-1.545 0.191-2.062 0.321-0.267 0.632-0.547 0.962-0.801 1.967-1.517 0.894-2.75 0.123-3.596-0.904-0.992-1.552-1.802-3.56-0.289l-0.746 0.603c-0.034 0.029-0.069 0.055-0.105 0.082-0.628 0.444-1.501 0.327-1.987-0.282-0.505-0.631-0.403-1.552 0.228-2.057 0.449-0.359 0.877-0.745 1.345-1.08 1.523-1.091 0.226-3.505-0.641-4.524-0.811-0.953-1.308-0.887-2.371-0.398-0.838 0.386-1.881 1.2-2.447 2.129-2.066 2.986-5.124-0.215-8.107-0.631-1.743-0.243-6.72-1.562-5.739 1.224z m-0.779 27.158c1.691 0.316 4.381 1.662 8.618 1.572 6.634-0.14 13.799-1.071 21.034-0.1 11.462 1.537 18.055 0.866 23.468-1.579 0.535-0.079 0.855-0.952 0.742-1.361-0.21-0.79-0.511-1.614-0.83-2.238-0.057-0.364 0.415-0.349 0.892-0.369 3.682-0.101 5.569-0.219 7.315 0.946 0.402 0.268 0.566 0.474 0.671 0.813 0.292 0.943 0.449 1.783 0.508 2.557 0.151 1.974-0.131 2.416-1.614 3.01-1.706 0.683-4.172 1.41-7 2.016-3.26 0.699-6.868 1.192-10.001 1.153l-0.008 0-0.002 0c-2.349 0.032-4.207-0.105-6.082-0.17-5.036-0.174-9.662-0.554-14.888-0.596-4.339-0.035-8.816 0.03-13.139 0.208-2.972 0.122-6.918-0.277-9.339-1.089-1.148-0.385-1.222-0.459-1.3-1.604-0.063-0.924-0.068-2.318 0.166-2.732 0.217-0.385 0.557-0.449 0.789-0.437z m11.573-20.256c-3.652 0-6.612 2.96-6.611 6.612 0 3.652 2.96 6.612 6.611 6.612 3.652 0 6.612-2.96 6.612-6.612 0-3.652-2.96-6.612-6.612-6.612z" fill="#fa4238" data-fill-palette-color="accent"></path></g></svg></g></svg></g></svg></g></svg></g></svg></g></svg></g><defs></defs></svg><rect width="95.481" height="54.83263574132078" fill="none" stroke="none" visibility="hidden"></rect></g></svg></g></svg>