<svg xmlns="http://www.w3.org/2000/svg" version="1.1" xmlns:xlink="http://www.w3.org/1999/xlink" xmlns:svgjs="http://svgjs.dev/svgjs" width="2000" height="424" viewBox="0 0 2000 424"><g transform="matrix(1,0,0,1,-1.2121212121212466,0.5075702088066691)"><svg viewBox="0 0 396 84" data-background-color="#fdf8f1" preserveAspectRatio="xMidYMid meet" height="424" width="2000" xmlns="http://www.w3.org/2000/svg" xmlns:xlink="http://www.w3.org/1999/xlink"><g id="tight-bounds" transform="matrix(1,0,0,1,0.2400000000000091,-0.10033038700487396)"><svg viewBox="0 0 395.52 84.20088674912691" height="84.20088674912691" width="395.52"><g><svg viewBox="0 0 659.3725625686253 140.3715474977812" height="84.20088674912691" width="395.52"><g transform="matrix(1,0,0,1,0,12.613124689915892)"><svg viewBox="0 0 395.52 115.14529811794941" height="115.14529811794941" width="395.52"><g id="textblocktransform"><svg viewBox="0 0 395.52 115.14529811794941" height="115.14529811794941" width="395.52" id="textblock"><g><svg viewBox="0 0 395.52 82.2667385444744" height="82.2667385444744" width="395.52"><g transform="matrix(1,0,0,1,0,0)"><svg width="395.52" viewBox="0.35 -36.3 222.58 46.3" height="82.2667385444744" data-palette-color="#fa4238"><g class="wordmark-text-0" data-fill-palette-color="primary" id="text-0"><path d="M10.15 0.3L10.15 0.3Q6.8 0.3 4.63-0.85 2.45-2 1.4-3.8 0.35-5.6 0.35-7.5L0.35-7.5Q0.35-9.35 1.25-11.03 2.15-12.7 3.83-13.8 5.5-14.9 7.8-14.9L7.8-14.9Q7.75-14.45 7.75-14.08 7.75-13.7 7.75-13.7L7.75-13.7Q7.75-10.35 8.4-8.43 9.05-6.5 10.05-5.68 11.05-4.85 12.1-4.85L12.1-4.85Q13.7-4.85 14.95-6.13 16.2-7.4 16.2-9.1L16.2-9.1Q16.2-11 14.58-12.45 12.95-13.9 10.45-15.65L10.45-15.65Q9.05-16.7 7.48-18.03 5.9-19.35 4.8-21.18 3.7-23 3.7-25.5L3.7-25.5Q3.7-28.1 4.93-30.1 6.15-32.1 8.18-33.48 10.2-34.85 12.63-35.58 15.05-36.3 17.45-36.3L17.45-36.3Q20.4-36.3 22.3-35.35 24.2-34.4 25.15-32.9 26.1-31.4 26.1-29.8L26.1-29.8Q26.1-28.3 25.28-26.93 24.45-25.55 22.85-24.7 21.25-23.85 18.9-23.85L18.9-23.85Q19.05-24.55 19.1-25.13 19.15-25.7 19.15-26.15L19.15-26.15Q19.15-28.65 18.07-29.73 17-30.8 15.7-30.8L15.7-30.8Q14.45-30.8 13.3-29.88 12.15-28.95 12.15-26.9L12.15-26.9Q12.15-25.15 13.08-23.9 14-22.65 15.48-21.7 16.95-20.75 18.6-19.85L18.6-19.85Q20.3-18.95 21.88-17.88 23.45-16.8 24.5-15.35 25.55-13.9 25.55-11.7L25.55-11.7Q25.55-9.4 24.3-7.23 23.05-5.05 20.9-3.38 18.75-1.7 15.98-0.7 13.2 0.3 10.15 0.3ZM33.65 0.2L33.65 0.2Q31.5 0.2 30.2-1.25 28.9-2.7 28.9-5.2L28.9-5.2Q28.9-6.55 29.25-8.72 29.6-10.9 30.12-13.53 30.65-16.15 31.15-18.88 31.65-21.6 32-24.15 32.35-26.7 32.35-28.65L32.35-28.65Q32.35-31.1 31.7-32.2L31.7-32.2 31.7-32.5Q32.8-33.75 34.1-34.35 35.4-34.95 36.65-34.95L36.65-34.95Q38.55-34.95 39.9-33.6 41.25-32.25 41.25-29.55L41.25-29.55Q41.25-28.1 40.85-26 40.45-23.9 39.9-21.6 39.35-19.3 38.8-17.3L38.8-17.3Q39.75-19.15 41.32-20.98 42.9-22.8 44.92-24 46.95-25.2 49.15-25.2L49.15-25.2Q51.65-25.2 52.52-23.65 53.4-22.1 53.4-19.8L53.4-19.8Q53.4-17.7 52.95-15.33 52.5-12.95 52.05-10.78 51.6-8.6 51.6-7.15L51.6-7.15Q51.6-5.05 52.85-5.05L52.85-5.05Q53.4-5.05 53.82-5.38 54.25-5.7 54.45-6.1L54.45-6.1 54.8-5.85Q54.8-3.9 53.85-2.55 52.9-1.2 51.42-0.5 49.95 0.2 48.4 0.2L48.4 0.2Q46.35 0.2 44.7-1.18 43.05-2.55 43.05-5.65L43.05-5.65Q43.05-7.4 43.52-9.45 44-11.5 44.45-13.43 44.9-15.35 44.9-16.65L44.9-16.65Q44.9-18.35 43.7-18.35L43.7-18.35Q42.6-18.35 41.3-17.25 40-16.15 39.02-14.5 38.05-12.85 37.75-11.25L37.75-11.25Q37.65-10.85 37.65-10.3L37.65-10.3Q37.65-9.05 38.02-7.9 38.4-6.75 38.4-5.2L38.4-5.2Q38.4-2.9 37.2-1.35 36 0.2 33.65 0.2ZM68.35 0.35L68.35 0.35Q64.6 0.35 62.15-1.15 59.7-2.65 58.52-5.13 57.35-7.6 57.35-10.4L57.35-10.4Q57.35-13.05 58.32-15.7 59.3-18.35 61.17-20.53 63.05-22.7 65.75-24.03 68.45-25.35 71.95-25.35L71.95-25.35Q75.7-25.35 78.12-23.83 80.55-22.3 81.72-19.8 82.9-17.3 82.9-14.45L82.9-14.45Q82.9-11.85 81.95-9.22 81-6.6 79.12-4.42 77.25-2.25 74.55-0.95 71.85 0.35 68.35 0.35ZM69.7-3.9L69.7-3.9Q71.05-3.9 71.95-5.3 72.85-6.7 73.3-8.88 73.75-11.05 73.75-13.3L73.75-13.3Q73.75-15.3 73.37-17.07 73-18.85 72.25-19.98 71.5-21.1 70.3-21.1L70.3-21.1Q69-21.1 68.07-19.7 67.15-18.3 66.7-16.15 66.25-14 66.25-11.7L66.25-11.7Q66.25-9.7 66.62-7.93 67-6.15 67.75-5.03 68.5-3.9 69.7-3.9ZM96.54 0.35L96.54 0.35Q92.89 0.35 90.49-1.13 88.09-2.6 86.89-5.03 85.69-7.45 85.69-10.25L85.69-10.25Q85.69-12.9 86.72-15.58 87.74-18.25 89.72-20.45 91.69-22.65 94.52-24 97.34-25.35 100.89-25.35L100.89-25.35Q105.29-25.35 107.32-23.38 109.34-21.4 109.34-18.6L109.34-18.6Q109.34-16.2 108.07-14.18 106.79-12.15 104.69-10.93 102.59-9.7 100.09-9.7L100.09-9.7Q98.79-9.7 97.44-10.1 96.09-10.5 94.79-11.35L94.79-11.35Q95.04-8.25 96.59-6.85 98.14-5.45 100.29-5.45L100.29-5.45Q101.79-5.45 103.29-6.03 104.79-6.6 106.07-7.53 107.34-8.45 108.04-9.5L108.04-9.5 108.39-9.25Q108.39-6.65 107.32-4.83 106.24-3 104.49-1.85 102.74-0.7 100.67-0.18 98.59 0.35 96.54 0.35ZM97.69-13.15L97.69-13.15Q99.29-13.15 100.29-14.08 101.29-15 101.79-16.25 102.29-17.5 102.29-18.45L102.29-18.45Q102.29-19.6 101.64-20.38 100.99-21.15 99.84-21.15L99.84-21.15Q98.94-21.15 97.87-20.5 96.79-19.85 95.94-18.28 95.09-16.7 94.84-13.9L94.84-13.9Q96.44-13.15 97.69-13.15ZM120.49 0.3L120.49 0.3Q117.14 0.3 114.97-0.85 112.79-2 111.74-3.8 110.69-5.6 110.69-7.5L110.69-7.5Q110.69-9.35 111.59-11.03 112.49-12.7 114.17-13.8 115.84-14.9 118.14-14.9L118.14-14.9Q118.09-14.45 118.09-14.08 118.09-13.7 118.09-13.7L118.09-13.7Q118.09-10.35 118.74-8.43 119.39-6.5 120.39-5.68 121.39-4.85 122.44-4.85L122.44-4.85Q124.04-4.85 125.29-6.13 126.54-7.4 126.54-9.1L126.54-9.1Q126.54-11 124.92-12.45 123.29-13.9 120.79-15.65L120.79-15.65Q119.39-16.7 117.82-18.03 116.24-19.35 115.14-21.18 114.04-23 114.04-25.5L114.04-25.5Q114.04-28.1 115.27-30.1 116.49-32.1 118.52-33.48 120.54-34.85 122.97-35.58 125.39-36.3 127.79-36.3L127.79-36.3Q130.74-36.3 132.64-35.35 134.54-34.4 135.49-32.9 136.44-31.4 136.44-29.8L136.44-29.8Q136.44-28.3 135.62-26.93 134.79-25.55 133.19-24.7 131.59-23.85 129.24-23.85L129.24-23.85Q129.39-24.55 129.44-25.13 129.49-25.7 129.49-26.15L129.49-26.15Q129.49-28.65 128.42-29.73 127.34-30.8 126.04-30.8L126.04-30.8Q124.79-30.8 123.64-29.88 122.49-28.95 122.49-26.9L122.49-26.9Q122.49-25.15 123.42-23.9 124.34-22.65 125.82-21.7 127.29-20.75 128.94-19.85L128.94-19.85Q130.64-18.95 132.22-17.88 133.79-16.8 134.84-15.35 135.89-13.9 135.89-11.7L135.89-11.7Q135.89-9.4 134.64-7.23 133.39-5.05 131.24-3.38 129.09-1.7 126.32-0.7 123.54 0.3 120.49 0.3ZM143.99 0.2L143.99 0.2Q141.84 0.2 140.54-1.25 139.24-2.7 139.24-5.2L139.24-5.2Q139.24-6.55 139.59-8.72 139.94-10.9 140.46-13.53 140.99-16.15 141.49-18.88 141.99-21.6 142.34-24.15 142.69-26.7 142.69-28.65L142.69-28.65Q142.69-31.1 142.04-32.2L142.04-32.2 142.04-32.5Q143.14-33.75 144.44-34.35 145.74-34.95 146.99-34.95L146.99-34.95Q148.89-34.95 150.24-33.6 151.59-32.25 151.59-29.55L151.59-29.55Q151.59-28.1 151.19-26 150.79-23.9 150.24-21.6 149.69-19.3 149.14-17.3L149.14-17.3Q150.09-19.15 151.66-20.98 153.24-22.8 155.26-24 157.29-25.2 159.49-25.2L159.49-25.2Q161.99-25.2 162.86-23.65 163.74-22.1 163.74-19.8L163.74-19.8Q163.74-17.7 163.29-15.33 162.84-12.95 162.39-10.78 161.94-8.6 161.94-7.15L161.94-7.15Q161.94-5.05 163.19-5.05L163.19-5.05Q163.74-5.05 164.16-5.38 164.59-5.7 164.79-6.1L164.79-6.1 165.14-5.85Q165.14-3.9 164.19-2.55 163.24-1.2 161.76-0.5 160.29 0.2 158.74 0.2L158.74 0.2Q156.69 0.2 155.04-1.18 153.39-2.55 153.39-5.65L153.39-5.65Q153.39-7.4 153.86-9.45 154.34-11.5 154.79-13.43 155.24-15.35 155.24-16.65L155.24-16.65Q155.24-18.35 154.04-18.35L154.04-18.35Q152.94-18.35 151.64-17.25 150.34-16.15 149.36-14.5 148.39-12.85 148.09-11.25L148.09-11.25Q147.99-10.85 147.99-10.3L147.99-10.3Q147.99-9.05 148.36-7.9 148.74-6.75 148.74-5.2L148.74-5.2Q148.74-2.9 147.54-1.35 146.34 0.2 143.99 0.2ZM178.69 0.35L178.69 0.35Q174.94 0.35 172.49-1.15 170.04-2.65 168.86-5.13 167.69-7.6 167.69-10.4L167.69-10.4Q167.69-13.05 168.66-15.7 169.64-18.35 171.51-20.53 173.39-22.7 176.09-24.03 178.79-25.35 182.29-25.35L182.29-25.35Q186.04-25.35 188.46-23.83 190.89-22.3 192.06-19.8 193.24-17.3 193.24-14.45L193.24-14.45Q193.24-11.85 192.29-9.22 191.34-6.6 189.46-4.42 187.59-2.25 184.89-0.95 182.19 0.35 178.69 0.35ZM180.04-3.9L180.04-3.9Q181.39-3.9 182.29-5.3 183.19-6.7 183.64-8.88 184.09-11.05 184.09-13.3L184.09-13.3Q184.09-15.3 183.71-17.07 183.34-18.85 182.59-19.98 181.84-21.1 180.64-21.1L180.64-21.1Q179.34-21.1 178.41-19.7 177.49-18.3 177.04-16.15 176.59-14 176.59-11.7L176.59-11.7Q176.59-9.7 176.96-7.93 177.34-6.15 178.09-5.03 178.84-3.9 180.04-3.9ZM200.73 10L200.73 10Q199.48 10 198.36 9.35 197.23 8.7 196.51 7.25 195.78 5.8 195.78 3.35L195.78 3.35Q195.78 1 196.41-1.75 197.03-4.5 197.83-7.28 198.63-10.05 199.26-12.55 199.88-15.05 199.88-17L199.88-17Q199.88-18.45 199.48-18.98 199.08-19.5 198.53-19.5L198.53-19.5Q198.03-19.5 197.53-19.2 197.03-18.9 196.68-18.5L196.68-18.5 196.33-18.7Q196.33-20.45 197.36-21.93 198.38-23.4 199.98-24.3 201.58-25.2 203.28-25.2L203.28-25.2Q204.93-25.2 205.93-24.38 206.93-23.55 207.46-22.25 207.98-20.95 208.08-19.45L208.08-19.45Q209.98-22.45 212.23-23.9 214.48-25.35 216.48-25.35L216.48-25.35Q219.18-25.35 221.06-22.8 222.93-20.25 222.93-14.9L222.93-14.9Q222.93-9.9 221.33-6.53 219.73-3.15 217.31-1.48 214.88 0.2 212.38 0.2L212.38 0.2Q210.23 0.2 208.41-1.07 206.58-2.35 205.58-4.8L205.58-4.8Q205.13-2.75 204.81-0.75 204.48 1.25 204.48 3.15L204.48 3.15Q204.48 4.2 204.61 5.2 204.73 6.2 205.03 7.2L205.03 7.2 205.03 7.5Q204.38 8.75 203.21 9.38 202.03 10 200.73 10ZM209.93-4.65L209.93-4.65Q211.13-4.65 212.03-5.6 212.93-6.55 213.58-8.08 214.23-9.6 214.56-11.35 214.88-13.1 214.88-14.75L214.88-14.75Q214.88-16.85 214.33-18.32 213.78-19.8 212.63-19.8L212.63-19.8Q211.18-19.8 209.38-16.88 207.58-13.95 206.58-8L206.58-8Q207.03-6.45 207.93-5.55 208.83-4.65 209.93-4.65Z" fill="#ffffff" data-fill-palette-color="primary"></path></g></svg></g></svg></g><g transform="matrix(1,0,0,1,163.310208,101.68794111309975)"><svg viewBox="0 0 232.209792 13.45735700484966" height="13.45735700484966" width="232.209792"><g transform="matrix(1,0,0,1,0,0)"><svg width="232.209792" viewBox="2.15 -34 824.7 47.800000000000004" height="13.45735700484966" data-palette-color="#fa4238"><path d="M10.75 0.6L10.75 0.6Q6.6 0.6 4.8-1.38 3-3.35 3-6.6L3-6.6Q3-7.45 3.15-8.65 3.3-9.85 3.55-11.55L3.55-11.55Q3.95-14 4.15-15.93 4.35-17.85 4.35-20.15L4.35-20.15Q4.35-22.8 4.2-24.45L4.2-24.45Q3.35-23.95 2.95-23.95L2.95-23.95Q2.15-23.95 2.15-25.75L2.15-25.75Q2.15-27.15 2.78-28.13 3.4-29.1 4.85-29.95L4.85-29.95Q6.3-30.85 8.53-31.5 10.75-32.15 13.3-32.15L13.3-32.15Q17.45-32.15 19.6-30.25 21.75-28.35 21.75-25.25L21.75-25.25Q21.75-23.25 20.9-21.55 20.05-19.85 18.5-18.55L18.5-18.55Q24.75-17.55 24.75-11.35L24.75-11.35Q24.75-8 22.85-5.25 20.95-2.5 17.7-0.95L17.7-0.95Q14.55 0.6 10.75 0.6ZM12.75-4.95L12.75-4.95Q15-4.95 16.82-5.58 18.65-6.2 19.75-7.4 20.85-8.6 20.85-10.2L20.85-10.2Q20.85-12.25 19.4-13.1 17.95-13.95 16.05-13.95L16.05-13.95Q15.25-13.95 14.05-13.8L14.05-13.8Q13.55-13.7 12.9-13.7L12.9-13.7Q11.8-13.7 11.08-14.6 10.35-15.5 10.35-16.85L10.35-16.85Q10.35-17.8 11.2-18.05L11.2-18.05Q17.3-19.65 17.3-23.6L17.3-23.6Q17.3-26.75 12.95-26.75L12.95-26.75Q11.35-26.75 9-26.2L9-26.2Q9-23.75 8.75-21.08 8.5-18.4 8-15.5L8-15.5Q7.7-13.5 7.53-12.13 7.35-10.75 7.35-9.9L7.35-9.9Q7.35-7.2 8.7-6.08 10.05-4.95 12.75-4.95ZM35.05 0.65L35.05 0.65Q32.55 0.65 31.17-0.8 29.8-2.25 29.8-5L29.8-5Q29.8-6.95 30.35-9L30.35-9Q30.6-9.85 30.75-10.7 30.9-11.55 30.9-12.4L30.9-12.4Q30.9-14.6 29.55-15.25L29.55-15.25Q28.25-15.95 28.25-16.75L28.25-16.75Q28.25-17.55 28.92-18.35 29.6-19.15 30.6-19.68 31.6-20.2 32.6-20.2L32.6-20.2Q35.45-20.2 35.45-15.55L35.45-15.55Q35.45-14.05 35.22-12.78 35-11.5 34.7-10.35L34.7-10.35Q34.5-9.55 34.37-8.75 34.25-7.95 34.25-7.35L34.25-7.35Q34.25-4.85 36.7-4.85L36.7-4.85Q39-4.85 41-7.3 43-9.75 44.3-14.15L44.3-14.15 44.25-15.1Q44.15-17.6 45.12-18.9 46.1-20.2 48-20.2L48-20.2Q49.65-20.2 49.65-19.15L49.65-19.15Q49.65-18.8 49.52-18.25 49.4-17.7 49.15-16.95L49.15-16.95Q48.65-15.1 48.3-13.03 47.95-10.95 47.95-9.2L47.95-9.2Q47.95-7.25 48.55-5.98 49.15-4.7 50.8-4.25L50.8-4.25Q51.25-4.2 51.52-3.98 51.8-3.75 51.8-3.05L51.8-3.05Q51.8-1.85 50.8-0.7 49.8 0.45 47.9 0.45L47.9 0.45Q44.25 0.45 44.25-4.7L44.25-4.7Q44.25-5.6 44.4-7.4L44.4-7.4 44.3-7.45Q41.15 0.65 35.05 0.65ZM56.05 13.8L56.05 13.8Q54 13.8 52.52 12.7 51.05 11.6 51.05 9.75L51.05 9.75Q51.05 8.3 51.92 7.28 52.8 6.25 54.1 6.25L54.1 6.25Q54.7 6.25 54.95 6.45 55.2 6.65 55.35 6.9L55.35 6.9Q55.75 7.55 56.27 8.03 56.8 8.5 57.7 8.5L57.7 8.5Q58.9 8.5 60.02 7.65 61.15 6.8 62.1 5.7L62.1 5.7Q62.95 4.75 64.15 2.98 65.34 1.2 66.55-1.05L66.55-1.05Q65.45-0.1 64.5 0.33 63.55 0.75 62.7 0.75L62.7 0.75Q61.65 0.75 60.65-0.03 59.65-0.8 59.4-2.95L59.4-2.95Q59.25-4.6 58.82-6.6 58.4-8.6 57.77-10.48 57.15-12.35 56.25-13.65L56.25-13.65Q55.9-14.25 55.45-14.55 55-14.85 54.15-14.95L54.15-14.95Q53.55-15 53.37-15.3 53.2-15.6 53.2-16.25L53.2-16.25Q53.2-18.05 54.2-19.15 55.2-20.25 56.9-20.25L56.9-20.25Q58.95-20.25 59.85-18.68 60.75-17.1 61.4-14.85L61.4-14.85Q61.65-13.95 61.92-12.48 62.2-11 62.42-9.3 62.65-7.6 62.75-6.05L62.75-6.05Q62.8-4.95 64-4.95L64-4.95Q65.59-4.95 67.05-5.95 68.5-6.95 69.42-8.55 70.34-10.15 70.34-11.9L70.34-11.9Q70.34-12.9 70.09-13.7 69.84-14.5 69.25-15.1L69.25-15.1Q68.75-15.7 68.45-16.07 68.15-16.45 68.15-16.95L68.15-16.95Q68.15-17.8 68.95-18.55 69.75-19.3 70.87-19.8 72-20.3 72.84-20.3L72.84-20.3Q74.34-20.3 74.84-18.88 75.34-17.45 75.09-15.75L75.09-15.75Q74.8-13.4 73.9-10.2 73-7 71.57-3.5 70.15 0 68.32 3.28 66.5 6.55 64.45 9L64.45 9Q62.7 11.15 60.55 12.48 58.4 13.8 56.05 13.8ZM119.99 8.8L119.99 8.8Q117.09 8.8 114.57 7.48 112.04 6.15 110.02 4.17 107.99 2.2 106.44 0.25L106.44 0.25Q105.54 0.45 104.62 0.55 103.69 0.65 102.79 0.65L102.79 0.65Q99.59 0.65 97.09-0.6 94.59-1.85 93.17-4.1 91.74-6.35 91.64-9.3L91.64-9.3Q91.59-13.3 94.39-16.25L94.39-16.25Q96.74-18.75 98.79-18.75L98.79-18.75Q99.84-18.75 100.39-18.03 100.94-17.3 101.59-15.85L101.59-15.85Q102.79-13.3 104.42-10.73 106.04-8.15 108.04-5.6L108.04-5.6Q111.14-6.75 113.14-9.65 115.14-12.55 115.04-16.6L115.04-16.6Q114.99-20 113.59-22.25 112.19-24.5 109.97-25.63 107.74-26.75 105.14-26.75L105.14-26.75Q102.39-26.75 100.32-25.68 98.24-24.6 96.79-23.13 95.34-21.65 94.49-20.4L94.49-20.4Q94.29-20.1 93.94-20 93.59-19.9 93.34-19.9L93.34-19.9Q92.59-19.9 92.32-20.5 92.04-21.1 92.04-22L92.04-22Q91.99-23.7 92.97-25.53 93.94-27.35 95.77-28.9 97.59-30.45 100.09-31.4 102.59-32.35 105.64-32.35L105.64-32.35Q111.79-32.35 115.24-28.5 118.69-24.65 118.79-18L118.79-18Q118.89-12.45 116.72-8.25 114.54-4.05 110.84-1.7L110.84-1.7Q112.14-0.4 113.84 0.73 115.54 1.85 117.44 2.5 119.34 3.15 121.14 3.15L121.14 3.15Q122.49 3.15 123.52 2.85 124.54 2.55 124.74 2.55L124.74 2.55Q125.14 2.55 125.37 3.28 125.59 4 125.59 4.7L125.59 4.7Q125.59 6.85 123.92 7.83 122.24 8.8 119.99 8.8ZM103.19-5L103.19-5Q101.44-7.2 100.39-9.2 99.34-11.2 98.34-13.55L98.34-13.55Q97.99-14.15 97.54-14.15L97.54-14.15Q96.84-14.15 96.19-13.2 95.54-12.25 95.59-10.9L95.59-10.9Q95.64-8.6 97.77-6.95 99.89-5.3 103.19-5ZM129.14 0.65L129.14 0.65Q126.64 0.65 125.26-0.8 123.89-2.25 123.89-5L123.89-5Q123.89-6.95 124.44-9L124.44-9Q124.69-9.85 124.84-10.7 124.99-11.55 124.99-12.4L124.99-12.4Q124.99-14.6 123.64-15.25L123.64-15.25Q122.34-15.95 122.34-16.75L122.34-16.75Q122.34-17.55 123.01-18.35 123.69-19.15 124.69-19.68 125.69-20.2 126.69-20.2L126.69-20.2Q129.54-20.2 129.54-15.55L129.54-15.55Q129.54-14.05 129.31-12.78 129.09-11.5 128.79-10.35L128.79-10.35Q128.59-9.55 128.46-8.75 128.34-7.95 128.34-7.35L128.34-7.35Q128.34-4.85 130.79-4.85L130.79-4.85Q133.09-4.85 135.09-7.3 137.09-9.75 138.39-14.15L138.39-14.15 138.34-15.1Q138.24-17.6 139.21-18.9 140.19-20.2 142.09-20.2L142.09-20.2Q143.74-20.2 143.74-19.15L143.74-19.15Q143.74-18.8 143.61-18.25 143.49-17.7 143.24-16.95L143.24-16.95Q142.74-15.1 142.39-13.03 142.04-10.95 142.04-9.2L142.04-9.2Q142.04-7.25 142.64-5.98 143.24-4.7 144.89-4.25L144.89-4.25Q145.34-4.2 145.61-3.98 145.89-3.75 145.89-3.05L145.89-3.05Q145.89-1.85 144.89-0.7 143.89 0.45 141.99 0.45L141.99 0.45Q138.34 0.45 138.34-4.7L138.34-4.7Q138.34-5.6 138.49-7.4L138.49-7.4 138.39-7.45Q135.24 0.65 129.14 0.65ZM154.94 0.65L154.94 0.65Q151.94 0.65 150.11-1.23 148.28-3.1 148.28-6.6L148.28-6.6Q148.28-9.1 149.26-11.58 150.24-14.05 152.09-16.05 153.94-18.05 156.53-19.25 159.14-20.45 162.39-20.45L162.39-20.45Q165.39-20.45 167.51-19.43 169.64-18.4 169.64-16.65L169.64-16.65Q169.64-16.2 169.54-15.48 169.44-14.75 169.29-14.3L169.29-14.3Q169.14-13.9 168.86-13.58 168.59-13.25 168.14-13.25L168.14-13.25Q167.94-13.25 167.39-13.4L167.39-13.4Q167.19-12.35 167.09-11.35 166.99-10.35 166.99-9.35L166.99-9.35Q166.99-7.45 167.56-5.98 168.14-4.5 169.84-4.15L169.84-4.15Q170.29-4.05 170.56-3.85 170.84-3.65 170.84-3L170.84-3Q170.84-2.45 170.56-1.6 170.29-0.75 169.51-0.08 168.74 0.6 167.29 0.6L167.29 0.6Q165.34 0.6 164.28-0.83 163.24-2.25 163.24-4.9L163.24-4.9Q161.89-2.45 159.81-0.9 157.74 0.65 154.94 0.65ZM156.53-4.55L156.53-4.55Q158.53-4.55 160.06-5.8 161.59-7.05 162.44-8.95L162.44-8.95Q162.99-10.15 163.28-11.58 163.59-13 163.69-14.4L163.69-14.4Q162.84-14.8 161.74-15.05 160.64-15.3 159.44-15.3L159.44-15.3Q156.39-15.3 154.41-13.5 152.44-11.7 152.44-9L152.44-9Q152.44-7 153.53-5.78 154.64-4.55 156.53-4.55ZM177.63 0.5L177.63 0.5Q176.18 0.5 175.48-0.3 174.78-1.1 174.78-3.1L174.78-3.1Q174.78-4.05 174.93-5.55 175.08-7.05 175.28-8.8L175.28-8.8Q175.58-10.95 175.81-13.3 176.03-15.65 176.03-17.8L176.03-17.8Q176.03-20.85 175.76-24.13 175.48-27.4 174.23-29.85L174.23-29.85Q173.78-30.85 173.78-31.3L173.78-31.3Q173.78-31.95 174.36-32.55 174.93-33.15 175.78-33.58 176.63-34 177.43-34L177.43-34Q178.73-34 179.38-32.83 180.03-31.65 180.23-29.63 180.43-27.6 180.43-25L180.43-25Q180.43-21.05 180.11-18.15 179.78-15.25 179.48-13.05L179.48-13.05Q179.28-11.6 179.11-10.3 178.93-9 178.93-7.95L178.93-7.95Q178.93-6.2 179.51-5.43 180.08-4.65 181.38-3.9L181.38-3.9Q181.73-3.7 181.91-3.53 182.08-3.35 182.08-3L182.08-3Q182.08-2.6 181.68-1.75 181.28-0.9 180.31-0.2 179.33 0.5 177.63 0.5ZM189.53-24.85L189.53-24.85Q188.13-24.9 187.28-25.7 186.43-26.5 186.43-27.95L186.43-27.95Q186.48-29.5 187.48-30.48 188.48-31.45 190.03-31.4L190.03-31.4Q191.48-31.35 192.31-30.55 193.13-29.75 193.08-28.3L193.08-28.3Q193.03-26.8 192.08-25.83 191.13-24.85 189.53-24.85ZM189.58 0.5L189.58 0.5Q188.08 0.5 187.23-0.33 186.38-1.15 186.38-3.15L186.38-3.15Q186.38-4.3 186.61-5.4 186.83-6.5 187.13-7.55L187.13-7.55Q187.48-8.65 187.71-9.8 187.93-10.95 187.93-12.25L187.93-12.25Q187.93-13.15 187.68-13.98 187.43-14.8 186.58-15.2L186.58-15.2Q185.93-15.55 185.46-15.93 184.98-16.3 184.98-16.9L184.98-16.9Q184.98-17.6 185.63-18.4 186.28-19.2 187.36-19.78 188.43-20.35 189.58-20.35L189.58-20.35Q190.83-20.35 191.41-19.7 191.98-19.05 192.18-18.05 192.38-17.05 192.38-16L192.38-16Q192.38-14.4 192.13-12.88 191.88-11.35 191.63-10.05L191.63-10.05Q191.43-9.1 191.33-8.3 191.23-7.5 191.23-6.8L191.23-6.8Q191.23-5.55 191.83-4.93 192.43-4.3 193.53-3.75L193.53-3.75Q193.98-3.5 193.98-3L193.98-3Q193.98-2.6 193.58-1.75 193.18-0.9 192.21-0.2 191.23 0.5 189.58 0.5ZM205.03 0.65L205.03 0.65Q201.98 0.65 200.65-1.38 199.33-3.4 199.33-6.6L199.33-6.6Q199.33-7.75 199.45-8.85 199.58-9.95 199.73-11.05L199.73-11.05Q199.88-12.15 200.03-13.2 200.18-14.25 200.28-15.2L200.28-15.2Q199.23-14.9 198.18-14.9L198.18-14.9Q197.08-14.9 197.08-15.8L197.08-15.8Q197.08-16.75 197.93-18.13 198.78-19.5 200.05-20.85 201.33-22.2 202.6-23.13 203.88-24.05 204.78-24.05L204.78-24.05Q205.88-24.05 205.88-22.15L205.88-22.15Q205.88-21.65 205.8-21.13 205.73-20.6 205.63-20.05L205.63-20.05Q206.58-20.25 207.55-20.4 208.53-20.55 209.43-20.55L209.43-20.55Q210.58-20.55 211.2-20.15 211.83-19.75 211.83-18.6L211.83-18.6Q211.83-17.4 211.25-16.2 210.68-15 209.98-15L209.98-15Q209.83-15 209.48-15.05 209.13-15.1 208.63-15.2L208.63-15.2Q207.98-15.35 206.98-15.5 205.98-15.65 204.58-15.65L204.58-15.65Q204.23-14.1 203.95-12.48 203.68-10.85 203.68-9.55L203.68-9.55Q203.68-6.65 205.13-5.6 206.58-4.55 209.33-4.55L209.33-4.55Q210.18-4.55 210.53-4.28 210.88-4 210.88-3.3L210.88-3.3Q210.88-1.65 209.18-0.5 207.48 0.65 205.03 0.65ZM215.88 13.8L215.88 13.8Q213.83 13.8 212.35 12.7 210.88 11.6 210.88 9.75L210.88 9.75Q210.88 8.3 211.75 7.28 212.63 6.25 213.93 6.25L213.93 6.25Q214.53 6.25 214.78 6.45 215.03 6.65 215.18 6.9L215.18 6.9Q215.58 7.55 216.1 8.03 216.63 8.5 217.53 8.5L217.53 8.5Q218.73 8.5 219.85 7.65 220.98 6.8 221.93 5.7L221.93 5.7Q222.78 4.75 223.98 2.98 225.18 1.2 226.38-1.05L226.38-1.05Q225.28-0.1 224.33 0.33 223.38 0.75 222.53 0.75L222.53 0.75Q221.48 0.75 220.48-0.03 219.48-0.8 219.23-2.95L219.23-2.95Q219.08-4.6 218.65-6.6 218.23-8.6 217.6-10.48 216.98-12.35 216.08-13.65L216.08-13.65Q215.73-14.25 215.28-14.55 214.83-14.85 213.98-14.95L213.98-14.95Q213.38-15 213.2-15.3 213.03-15.6 213.03-16.25L213.03-16.25Q213.03-18.05 214.03-19.15 215.03-20.25 216.73-20.25L216.73-20.25Q218.78-20.25 219.68-18.68 220.58-17.1 221.23-14.85L221.23-14.85Q221.48-13.95 221.75-12.48 222.03-11 222.25-9.3 222.48-7.6 222.58-6.05L222.58-6.05Q222.63-4.95 223.83-4.95L223.83-4.95Q225.43-4.95 226.88-5.95 228.33-6.95 229.25-8.55 230.18-10.15 230.18-11.9L230.18-11.9Q230.18-12.9 229.93-13.7 229.68-14.5 229.08-15.1L229.08-15.1Q228.58-15.7 228.28-16.07 227.98-16.45 227.98-16.95L227.98-16.95Q227.98-17.8 228.78-18.55 229.58-19.3 230.7-19.8 231.83-20.3 232.68-20.3L232.68-20.3Q234.18-20.3 234.68-18.88 235.18-17.45 234.93-15.75L234.93-15.75Q234.63-13.4 233.73-10.2 232.83-7 231.4-3.5 229.98 0 228.15 3.28 226.33 6.55 224.28 9L224.28 9Q222.53 11.15 220.38 12.48 218.23 13.8 215.88 13.8ZM259.07 0.65L259.07 0.65Q256.62 0.65 254.55-0.08 252.47-0.8 251.22-2.1 249.97-3.4 249.97-5.15L249.97-5.15Q249.97-6.3 250.52-7.18 251.07-8.05 252.02-8.05L252.02-8.05Q252.62-8.05 253.27-7.6L253.27-7.6Q254.52-6.5 256.5-5.68 258.47-4.85 260.72-4.85L260.72-4.85Q263.67-4.85 265.55-6.03 267.42-7.2 267.42-9.2L267.42-9.2Q267.42-11.1 265.67-11.95 263.92-12.8 260.82-13.55L260.82-13.55Q258.52-14.1 256.4-14.95 254.27-15.8 252.9-17.32 251.52-18.85 251.52-21.4L251.52-21.4Q251.52-23.35 252.37-25.28 253.22-27.2 254.87-28.8 256.52-30.4 258.87-31.38 261.22-32.35 264.17-32.35L264.17-32.35Q266.37-32.35 268.2-31.85 270.02-31.35 271.1-30.45 272.17-29.55 272.17-28.25L272.17-28.25Q272.17-27.25 271.62-26.5 271.07-25.75 270.32-25.33 269.57-24.9 269.02-24.9L269.02-24.9Q268.52-24.9 267.67-25.35L267.67-25.35Q266.27-26.1 264.55-26.53 262.82-26.95 261.52-26.95L261.52-26.95Q259.07-26.95 257.55-25.88 256.02-24.8 256.02-23.35L256.02-23.35Q256.02-21.75 257.95-20.68 259.87-19.6 264.87-18.4L264.87-18.4Q268.27-17.5 270.17-15.93 272.07-14.35 272.07-10.95L272.07-10.95Q272.07-7.9 270.45-5.25 268.82-2.6 265.9-0.98 262.97 0.65 259.07 0.65ZM277.57 0.55L277.57 0.55Q276.87 0.55 276.37 0.23 275.87-0.1 275.97-0.65L275.97-0.65Q276.72-4.65 277.24-8.78 277.77-12.9 277.77-17.1L277.77-17.1Q277.77-20.8 277.52-23.8 277.27-26.8 275.92-29.55L275.92-29.55Q275.67-30.1 275.52-30.5 275.37-30.9 275.37-31.25L275.37-31.25Q275.37-32.2 276.49-33.1 277.62-34 278.87-34L278.87-34Q280.62-34 281.27-31.8 281.92-29.6 281.92-25.3L281.92-25.3Q281.92-20.15 281.32-16.32 280.72-12.5 280.27-10.5L280.27-10.5 280.47-10.4Q281.47-13.05 282.89-15.35 284.32-17.65 286.22-19.05 288.12-20.45 290.62-20.45L290.62-20.45Q293.27-20.45 294.64-18.85 296.02-17.25 296.02-14.9L296.02-14.9Q296.02-13.9 295.82-12.98 295.62-12.05 295.37-11.2L295.37-11.2Q295.12-10.4 294.92-9.58 294.72-8.75 294.72-7.9L294.72-7.9Q294.72-6.35 295.47-5.38 296.22-4.4 297.47-4L297.47-4Q297.82-3.9 297.99-3.73 298.17-3.55 298.17-3.1L298.17-3.1Q298.17-2.65 297.87-1.8 297.57-0.95 296.77-0.23 295.97 0.5 294.42 0.5L294.42 0.5Q292.42 0.5 291.32-0.93 290.22-2.35 290.22-4.6L290.22-4.6Q290.22-5.7 290.44-6.85 290.67-8 290.97-9.05L290.97-9.05Q291.22-10.1 291.42-11.03 291.62-11.95 291.62-12.6L291.62-12.6Q291.62-14.9 289.22-14.9L289.22-14.9Q287.22-14.9 285.69-13.48 284.17-12.05 283.09-9.88 282.02-7.7 281.32-5.4L281.32-5.4 281.32-3.7Q281.32-1.85 280.24-0.65 279.17 0.55 277.57 0.55ZM309.27 0.65L309.27 0.65Q305.82 0.65 303.74-1.23 301.67-3.1 301.67-6.75L301.67-6.75Q301.67-8.45 302.14-10.05 302.62-11.65 303.42-13.05L303.42-13.05Q302.62-12.55 302.22-12.55L302.22-12.55Q301.62-12.55 301.39-13.23 301.17-13.9 301.17-14.55L301.17-14.55Q301.17-15.7 301.64-16.38 302.12-17.05 302.57-17.4L302.57-17.4Q303.62-18.3 305.87-19.38 308.12-20.45 311.27-20.45L311.27-20.45Q315.57-20.45 317.94-18.05 320.32-15.65 320.32-11.35L320.32-11.35Q320.32-8 318.92-5.28 317.52-2.55 315.04-0.95 312.57 0.65 309.27 0.65ZM310.82-4.45L310.82-4.45Q313.32-4.45 315.04-6.03 316.77-7.6 316.77-10.2L316.77-10.2Q316.77-12.9 315.02-14.05 313.27-15.2 310.97-15.2L310.97-15.2Q309.92-15.2 309.07-15 308.22-14.8 307.47-14.5L307.47-14.5Q306.77-13.5 306.22-12.25 305.67-11 305.67-9.5L305.67-9.5Q305.67-7 307.17-5.73 308.67-4.45 310.82-4.45ZM332.01 0.65L332.01 0.65Q328.21 0.65 326.09-1.53 323.96-3.7 323.96-7.6L323.96-7.6Q323.96-11.15 325.51-14.05 327.06-16.95 329.69-18.68 332.31-20.4 335.46-20.4L335.46-20.4Q338.46-20.4 340.26-18.93 342.06-17.45 342.06-15L342.06-15Q342.06-13.05 340.86-11.4 339.66-9.75 337.66-8.78 335.66-7.8 333.21-7.8L333.21-7.8Q330.21-7.8 328.31-9.15L328.31-9.15Q328.36-6.85 329.89-5.45 331.41-4.05 333.81-4.05L333.81-4.05Q335.26-4.05 336.79-4.58 338.31-5.1 339.41-6L339.41-6Q340.11-6.6 340.71-6.6L340.71-6.6Q341.21-6.6 341.54-6.28 341.86-5.95 341.86-5.45L341.86-5.45Q341.86-4.35 339.96-2.55L339.96-2.55Q336.61 0.65 332.01 0.65ZM332.76-11.1L332.76-11.1Q334.56-11.1 335.76-11.85 336.96-12.6 336.96-13.75L336.96-13.75Q336.96-14.7 336.16-15.23 335.36-15.75 333.96-15.75L333.96-15.75Q332.11-15.75 330.74-14.78 329.36-13.8 328.76-12.05L328.76-12.05Q329.46-11.6 330.56-11.35 331.66-11.1 332.76-11.1ZM352.51 0.65L352.51 0.65Q350.66 0.65 349.06 0.1 347.46-0.45 346.46-1.45 345.46-2.45 345.46-3.85L345.46-3.85Q345.46-4.6 345.84-5.28 346.21-5.95 347.06-5.95L347.06-5.95Q347.51-5.95 348.01-5.7L348.01-5.7Q348.91-5.2 350.31-4.78 351.71-4.35 353.26-4.35L353.26-4.35Q355.01-4.35 356.36-4.85 357.71-5.35 357.71-6.25L357.71-6.25Q357.71-6.95 356.69-7.25 355.66-7.55 353.26-7.9L353.26-7.9Q351.61-8.2 350.06-8.6 348.51-9 347.51-9.98 346.51-10.95 346.51-12.85L346.51-12.85Q346.51-14.7 347.54-16.43 348.56-18.15 350.61-19.3 352.66-20.45 355.61-20.45L355.61-20.45Q357.16-20.45 358.61-20.1 360.06-19.75 361.01-19.05 361.96-18.35 361.96-17.3L361.96-17.3Q361.96-16.4 361.34-15.65 360.71-14.9 359.89-14.43 359.06-13.95 358.51-13.95L358.51-13.95Q358.11-13.95 357.56-14.5L357.56-14.5Q356.71-15.2 355.69-15.48 354.66-15.75 353.66-15.75L353.66-15.75Q352.16-15.75 351.24-15.3 350.31-14.85 350.31-14.15L350.31-14.15Q350.31-13.5 351.09-13.1 351.86-12.7 353.01-12.53 354.16-12.35 355.21-12.2L355.21-12.2Q358.11-11.8 359.81-10.83 361.51-9.85 361.51-7.4L361.51-7.4Q361.51-5.5 360.44-3.63 359.36-1.75 357.34-0.55 355.31 0.65 352.51 0.65ZM385.51 0.65L385.51 0.65Q382.51 0.65 380.68-1.23 378.86-3.1 378.86-6.6L378.86-6.6Q378.86-9.1 379.83-11.58 380.81-14.05 382.66-16.05 384.51-18.05 387.11-19.25 389.71-20.45 392.96-20.45L392.96-20.45Q395.96-20.45 398.08-19.43 400.21-18.4 400.21-16.65L400.21-16.65Q400.21-16.2 400.11-15.48 400.01-14.75 399.86-14.3L399.86-14.3Q399.71-13.9 399.43-13.58 399.16-13.25 398.71-13.25L398.71-13.25Q398.51-13.25 397.96-13.4L397.96-13.4Q397.76-12.35 397.66-11.35 397.56-10.35 397.56-9.35L397.56-9.35Q397.56-7.45 398.13-5.98 398.71-4.5 400.41-4.15L400.41-4.15Q400.86-4.05 401.13-3.85 401.41-3.65 401.41-3L401.41-3Q401.41-2.45 401.13-1.6 400.86-0.75 400.08-0.08 399.31 0.6 397.86 0.6L397.86 0.6Q395.91 0.6 394.86-0.83 393.81-2.25 393.81-4.9L393.81-4.9Q392.46-2.45 390.38-0.9 388.31 0.65 385.51 0.65ZM387.11-4.55L387.11-4.55Q389.11-4.55 390.63-5.8 392.16-7.05 393.01-8.95L393.01-8.95Q393.56-10.15 393.86-11.58 394.16-13 394.26-14.4L394.26-14.4Q393.41-14.8 392.31-15.05 391.21-15.3 390.01-15.3L390.01-15.3Q386.96-15.3 384.98-13.5 383.01-11.7 383.01-9L383.01-9Q383.01-7 384.11-5.78 385.21-4.55 387.11-4.55ZM407.3 0.55L407.3 0.55Q405.5 0.55 405.7-0.65L405.7-0.65Q406.25-2.8 406.63-5.03 407-7.25 407-9.3L407-9.3Q407-11.95 406.68-13.18 406.35-14.4 405.8-14.88 405.25-15.35 404.45-15.6L404.45-15.6Q404.1-15.75 403.83-16 403.55-16.25 403.55-16.7L403.55-16.7Q403.55-17.4 404.1-18.25 404.65-19.1 405.68-19.73 406.7-20.35 408-20.35L408-20.35Q409.7-20.35 410.35-19.18 411-18 411-16.1L411-16.1Q411-14.85 410.75-13.3 410.5-11.75 410.25-10.5L410.25-10.5 410.4-10.45Q411.4-13.1 412.83-15.38 414.25-17.65 416.15-19.05 418.05-20.45 420.55-20.45L420.55-20.45Q423.2-20.45 424.6-18.85 426-17.25 426-14.85L426-14.85Q426-13.85 425.78-12.95 425.55-12.05 425.3-11.2L425.3-11.2Q425.05-10.4 424.88-9.55 424.7-8.7 424.7-7.85L424.7-7.85Q424.7-5 427.4-4L427.4-4Q428.1-3.7 428.1-3.1L428.1-3.1Q428.1-2.65 427.8-1.8 427.5-0.95 426.7-0.23 425.9 0.5 424.35 0.5L424.35 0.5Q422.35 0.5 421.25-0.93 420.15-2.35 420.15-4.55L420.15-4.55Q420.15-5.8 420.43-7.08 420.7-8.35 421-9.45L421-9.45Q421.2-10.3 421.38-11.13 421.55-11.95 421.55-12.6L421.55-12.6Q421.55-14.9 419.15-14.9L419.15-14.9Q417.1-14.9 415.55-13.38 414-11.85 412.9-9.55 411.8-7.25 411.1-4.9L411.1-4.9 411.1-3.7Q411.1-1.85 410.08-0.65 409.05 0.55 407.3 0.55ZM437.55 0.65L437.55 0.65Q434.55 0.65 432.83-1.35 431.1-3.35 431.1-6.8L431.1-6.8Q431.1-9.35 431.93-11.8 432.75-14.25 434.25-16.2 435.75-18.15 437.75-19.3 439.75-20.45 442.1-20.45L442.1-20.45Q443.6-20.45 444.78-20 445.95-19.55 446.85-18.85L446.85-18.85Q446.8-22.25 446.5-24.95 446.2-27.65 445.05-29.95L445.05-29.95Q444.85-30.35 444.73-30.68 444.6-31 444.6-31.3L444.6-31.3Q444.6-32 445.18-32.6 445.75-33.2 446.6-33.6 447.45-34 448.2-34L448.2-34Q449.55-34 450.23-32.83 450.9-31.65 451.1-29.63 451.3-27.6 451.3-25L451.3-25Q451.3-21.2 450.95-18.15 450.6-15.1 450.3-12.8L450.3-12.8Q450.1-11.3 449.95-10.2 449.8-9.1 449.8-8.4L449.8-8.4Q449.8-4.85 452.85-4.2L452.85-4.2Q453.65-4.05 453.65-3.15L453.65-3.15Q453.65-2.6 453.33-1.75 453-0.9 452.15-0.23 451.3 0.45 449.7 0.45L449.7 0.45Q447.55 0.45 446.8-1 446.05-2.45 446.05-5.4L446.05-5.4Q444.65-2.85 442.5-1.1 440.35 0.65 437.55 0.65ZM439.1-4.7L439.1-4.7Q440.5-4.7 441.9-5.6 443.3-6.5 444.4-8.05L444.4-8.05Q445.05-9 445.58-10.23 446.1-11.45 446.55-12.7L446.55-12.7Q444-15 440.9-15L440.9-15Q438.2-15 436.6-13.38 435-11.75 435-9.35L435-9.35Q435-7.3 436.2-6 437.4-4.7 439.1-4.7ZM477.25 0.7L477.25 0.7Q475.85 0.7 474.87-0.13 473.9-0.95 473.75-3.2L473.75-3.2Q473.65-4.9 473.32-7 473-9.1 472.55-10.95 472.1-12.8 471.5-13.75L471.5-13.75Q471.15-14.3 470.72-14.58 470.3-14.85 469.45-14.95L469.45-14.95Q468.55-15 468.55-16.25L468.55-16.25Q468.55-18.3 469.65-19.28 470.75-20.25 472.15-20.25L472.15-20.25Q473.65-20.25 474.6-19.28 475.55-18.3 476.07-16.68 476.6-15.05 476.82-13.05 477.05-11.05 477.05-9L477.05-9Q477.05-8.25 477.02-7.53 477-6.8 477-6.1L477-6.1Q477-5.6 477.2-5.28 477.4-4.95 478.2-4.95L478.2-4.95Q479.3-4.95 480.8-5.53 482.3-6.1 483.42-7.45 484.55-8.8 484.55-11.05L484.55-11.05Q484.55-12.2 484.2-12.98 483.85-13.75 483.25-14.45L483.25-14.45Q483.05-14.7 482.9-14.95 482.75-15.2 482.75-15.55L482.75-15.55Q482.75-16.5 483.52-17.07 484.3-17.65 485.27-17.93 486.25-18.2 486.9-18.2L486.9-18.2Q487.55-18.2 487.92-17.88 488.3-17.55 488.5-16.6L488.5-16.6Q488.7-15.95 488.8-15.18 488.9-14.4 488.9-13.4L488.9-13.4Q488.9-11.85 488.77-10.9 488.65-9.95 488.5-9.2L488.5-9.2Q488.35-8.55 488.27-7.93 488.2-7.3 488.2-6.45L488.2-6.45Q488.2-5.55 488.55-5.25 488.9-4.95 489.65-4.95L489.65-4.95Q492.5-4.95 494.3-6.93 496.1-8.9 496.1-11.75L496.1-11.75Q496.1-12.75 495.8-13.63 495.5-14.5 494.75-15.3L494.75-15.3Q494.35-15.8 494.1-16.13 493.85-16.45 493.85-16.95L493.85-16.95Q493.85-17.85 494.67-18.6 495.5-19.35 496.62-19.83 497.75-20.3 498.65-20.3L498.65-20.3Q500-20.3 500.4-19.05 500.8-17.8 500.8-16.2L500.8-16.2Q500.8-13.5 500.02-10.58 499.25-7.65 497.8-5.08 496.35-2.5 494.25-0.9 492.15 0.7 489.5 0.7L489.5 0.7Q486.8 0.7 485.8-0.85 484.8-2.4 484.95-4.6L484.95-4.6Q483.45-2.3 481.42-0.8 479.4 0.7 477.25 0.7ZM511.79 0.65L511.79 0.65Q507.99 0.65 505.87-1.53 503.74-3.7 503.74-7.6L503.74-7.6Q503.74-11.15 505.29-14.05 506.84-16.95 509.47-18.68 512.09-20.4 515.24-20.4L515.24-20.4Q518.24-20.4 520.04-18.93 521.84-17.45 521.84-15L521.84-15Q521.84-13.05 520.64-11.4 519.44-9.75 517.44-8.78 515.44-7.8 512.99-7.8L512.99-7.8Q509.99-7.8 508.09-9.15L508.09-9.15Q508.14-6.85 509.67-5.45 511.19-4.05 513.59-4.05L513.59-4.05Q515.04-4.05 516.57-4.58 518.09-5.1 519.19-6L519.19-6Q519.89-6.6 520.49-6.6L520.49-6.6Q520.99-6.6 521.32-6.28 521.64-5.95 521.64-5.45L521.64-5.45Q521.64-4.35 519.74-2.55L519.74-2.55Q516.39 0.65 511.79 0.65ZM512.54-11.1L512.54-11.1Q514.34-11.1 515.54-11.85 516.74-12.6 516.74-13.75L516.74-13.75Q516.74-14.7 515.94-15.23 515.14-15.75 513.74-15.75L513.74-15.75Q511.89-15.75 510.52-14.78 509.14-13.8 508.54-12.05L508.54-12.05Q509.24-11.6 510.34-11.35 511.44-11.1 512.54-11.1ZM531.89 0.65L531.89 0.65Q528.89 0.65 527.07-1.23 525.24-3.1 525.24-6.6L525.24-6.6Q525.24-9.1 526.22-11.58 527.19-14.05 529.04-16.05 530.89-18.05 533.49-19.25 536.09-20.45 539.34-20.45L539.34-20.45Q542.34-20.45 544.47-19.43 546.59-18.4 546.59-16.65L546.59-16.65Q546.59-16.2 546.49-15.48 546.39-14.75 546.24-14.3L546.24-14.3Q546.09-13.9 545.82-13.58 545.54-13.25 545.09-13.25L545.09-13.25Q544.89-13.25 544.34-13.4L544.34-13.4Q544.14-12.35 544.04-11.35 543.94-10.35 543.94-9.35L543.94-9.35Q543.94-7.45 544.52-5.98 545.09-4.5 546.79-4.15L546.79-4.15Q547.24-4.05 547.52-3.85 547.79-3.65 547.79-3L547.79-3Q547.79-2.45 547.52-1.6 547.24-0.75 546.47-0.08 545.69 0.6 544.24 0.6L544.24 0.6Q542.29 0.6 541.24-0.83 540.19-2.25 540.19-4.9L540.19-4.9Q538.84-2.45 536.77-0.9 534.69 0.65 531.89 0.65ZM533.49-4.55L533.49-4.55Q535.49-4.55 537.02-5.8 538.54-7.05 539.39-8.95L539.39-8.95Q539.94-10.15 540.24-11.58 540.54-13 540.64-14.4L540.64-14.4Q539.79-14.8 538.69-15.05 537.59-15.3 536.39-15.3L536.39-15.3Q533.34-15.3 531.37-13.5 529.39-11.7 529.39-9L529.39-9Q529.39-7 530.49-5.78 531.59-4.55 533.49-4.55ZM553.89 0.55L553.89 0.55Q553.09 0.55 552.61 0.28 552.14 0 552.29-0.65L552.29-0.65Q552.84-2.8 553.21-5.03 553.59-7.25 553.59-9.3L553.59-9.3Q553.59-11.95 553.26-13.18 552.94-14.4 552.39-14.88 551.84-15.35 551.04-15.6L551.04-15.6Q550.69-15.75 550.41-16 550.14-16.25 550.14-16.7L550.14-16.7Q550.14-17.4 550.69-18.25 551.24-19.1 552.24-19.73 553.24-20.35 554.54-20.35L554.54-20.35Q556.24-20.35 556.91-19.18 557.59-18 557.59-16.1L557.59-16.1Q558.49-18.1 559.81-19.28 561.14-20.45 563.14-20.45L563.14-20.45Q564.49-20.45 565.39-19.85 566.29-19.25 566.29-17.9L566.29-17.9Q566.29-16.55 565.41-15.38 564.54-14.2 563.64-14.2L563.64-14.2Q563.49-14.2 563.29-14.25 563.09-14.3 562.94-14.5L562.94-14.5Q562.29-15.3 561.34-15.3L561.34-15.3Q559.89-15.3 558.79-13.4 557.69-11.5 557.59-8.15L557.59-8.15Q557.64-6.9 557.66-5.6 557.69-4.3 557.69-3.7L557.69-3.7Q557.69-1.85 556.66-0.65 555.64 0.55 553.89 0.55ZM584.08-24.85L584.08-24.85Q582.68-24.9 581.83-25.7 580.98-26.5 580.98-27.95L580.98-27.95Q581.03-29.5 582.03-30.48 583.03-31.45 584.58-31.4L584.58-31.4Q586.03-31.35 586.86-30.55 587.68-29.75 587.63-28.3L587.63-28.3Q587.58-26.8 586.63-25.83 585.68-24.85 584.08-24.85ZM584.13 0.5L584.13 0.5Q582.63 0.5 581.78-0.33 580.93-1.15 580.93-3.15L580.93-3.15Q580.93-4.3 581.16-5.4 581.38-6.5 581.68-7.55L581.68-7.55Q582.03-8.65 582.26-9.8 582.48-10.95 582.48-12.25L582.48-12.25Q582.48-13.15 582.23-13.98 581.98-14.8 581.13-15.2L581.13-15.2Q580.48-15.55 580.01-15.93 579.53-16.3 579.53-16.9L579.53-16.9Q579.53-17.6 580.18-18.4 580.83-19.2 581.91-19.78 582.98-20.35 584.13-20.35L584.13-20.35Q585.38-20.35 585.96-19.7 586.53-19.05 586.73-18.05 586.93-17.05 586.93-16L586.93-16Q586.93-14.4 586.68-12.88 586.43-11.35 586.18-10.05L586.18-10.05Q585.98-9.1 585.88-8.3 585.78-7.5 585.78-6.8L585.78-6.8Q585.78-5.55 586.38-4.93 586.98-4.3 588.08-3.75L588.08-3.75Q588.53-3.5 588.53-3L588.53-3Q588.53-2.6 588.13-1.75 587.73-0.9 586.76-0.2 585.78 0.5 584.13 0.5ZM599.58 0.65L599.58 0.65Q596.53 0.65 595.2-1.38 593.88-3.4 593.88-6.6L593.88-6.6Q593.88-7.75 594-8.85 594.13-9.95 594.28-11.05L594.28-11.05Q594.43-12.15 594.58-13.2 594.73-14.25 594.83-15.2L594.83-15.2Q593.78-14.9 592.73-14.9L592.73-14.9Q591.63-14.9 591.63-15.8L591.63-15.8Q591.63-16.75 592.48-18.13 593.33-19.5 594.6-20.85 595.88-22.2 597.15-23.13 598.43-24.05 599.33-24.05L599.33-24.05Q600.43-24.05 600.43-22.15L600.43-22.15Q600.43-21.65 600.35-21.13 600.28-20.6 600.18-20.05L600.18-20.05Q601.13-20.25 602.1-20.4 603.08-20.55 603.98-20.55L603.98-20.55Q605.13-20.55 605.75-20.15 606.38-19.75 606.38-18.6L606.38-18.6Q606.38-17.4 605.8-16.2 605.23-15 604.53-15L604.53-15Q604.38-15 604.03-15.05 603.68-15.1 603.18-15.2L603.18-15.2Q602.53-15.35 601.53-15.5 600.53-15.65 599.13-15.65L599.13-15.65Q598.78-14.1 598.5-12.48 598.23-10.85 598.23-9.55L598.23-9.55Q598.23-6.65 599.68-5.6 601.13-4.55 603.88-4.55L603.88-4.55Q604.73-4.55 605.08-4.28 605.43-4 605.43-3.3L605.43-3.3Q605.43-1.65 603.73-0.5 602.03 0.65 599.58 0.65ZM629.37 0.7L629.37 0.7Q627.97 0.7 627-0.13 626.02-0.95 625.87-3.2L625.87-3.2Q625.77-4.9 625.45-7 625.12-9.1 624.67-10.95 624.22-12.8 623.62-13.75L623.62-13.75Q623.27-14.3 622.85-14.58 622.42-14.85 621.57-14.95L621.57-14.95Q620.67-15 620.67-16.25L620.67-16.25Q620.67-18.3 621.77-19.28 622.87-20.25 624.27-20.25L624.27-20.25Q625.77-20.25 626.72-19.28 627.67-18.3 628.2-16.68 628.72-15.05 628.95-13.05 629.17-11.05 629.17-9L629.17-9Q629.17-8.25 629.15-7.53 629.12-6.8 629.12-6.1L629.12-6.1Q629.12-5.6 629.32-5.28 629.52-4.95 630.32-4.95L630.32-4.95Q631.42-4.95 632.92-5.53 634.42-6.1 635.55-7.45 636.67-8.8 636.67-11.05L636.67-11.05Q636.67-12.2 636.32-12.98 635.97-13.75 635.37-14.45L635.37-14.45Q635.17-14.7 635.02-14.95 634.87-15.2 634.87-15.55L634.87-15.55Q634.87-16.5 635.65-17.07 636.42-17.65 637.4-17.93 638.37-18.2 639.02-18.2L639.02-18.2Q639.67-18.2 640.05-17.88 640.42-17.55 640.62-16.6L640.62-16.6Q640.82-15.95 640.92-15.18 641.02-14.4 641.02-13.4L641.02-13.4Q641.02-11.85 640.9-10.9 640.77-9.95 640.62-9.2L640.62-9.2Q640.47-8.55 640.4-7.93 640.32-7.3 640.32-6.45L640.32-6.45Q640.32-5.55 640.67-5.25 641.02-4.95 641.77-4.95L641.77-4.95Q644.62-4.95 646.42-6.93 648.22-8.9 648.22-11.75L648.22-11.75Q648.22-12.75 647.92-13.63 647.62-14.5 646.87-15.3L646.87-15.3Q646.47-15.8 646.22-16.13 645.97-16.45 645.97-16.95L645.97-16.95Q645.97-17.85 646.8-18.6 647.62-19.35 648.75-19.83 649.87-20.3 650.77-20.3L650.77-20.3Q652.12-20.3 652.52-19.05 652.92-17.8 652.92-16.2L652.92-16.2Q652.92-13.5 652.15-10.58 651.37-7.65 649.92-5.08 648.47-2.5 646.37-0.9 644.27 0.7 641.62 0.7L641.62 0.7Q638.92 0.7 637.92-0.85 636.92-2.4 637.07-4.6L637.07-4.6Q635.57-2.3 633.55-0.8 631.52 0.7 629.37 0.7ZM660.52-24.85L660.52-24.85Q659.12-24.9 658.27-25.7 657.42-26.5 657.42-27.95L657.42-27.95Q657.47-29.5 658.47-30.48 659.47-31.45 661.02-31.4L661.02-31.4Q662.47-31.35 663.3-30.55 664.12-29.75 664.07-28.3L664.07-28.3Q664.02-26.8 663.07-25.83 662.12-24.85 660.52-24.85ZM660.57 0.5L660.57 0.5Q659.07 0.5 658.22-0.33 657.37-1.15 657.37-3.15L657.37-3.15Q657.37-4.3 657.6-5.4 657.82-6.5 658.12-7.55L658.12-7.55Q658.47-8.65 658.7-9.8 658.92-10.95 658.92-12.25L658.92-12.25Q658.92-13.15 658.67-13.98 658.42-14.8 657.57-15.2L657.57-15.2Q656.92-15.55 656.45-15.93 655.97-16.3 655.97-16.9L655.97-16.9Q655.97-17.6 656.62-18.4 657.27-19.2 658.35-19.78 659.42-20.35 660.57-20.35L660.57-20.35Q661.82-20.35 662.4-19.7 662.97-19.05 663.17-18.05 663.37-17.05 663.37-16L663.37-16Q663.37-14.4 663.12-12.88 662.87-11.35 662.62-10.05L662.62-10.05Q662.42-9.1 662.32-8.3 662.22-7.5 662.22-6.8L662.22-6.8Q662.22-5.55 662.82-4.93 663.42-4.3 664.52-3.75L664.52-3.75Q664.97-3.5 664.97-3L664.97-3Q664.97-2.6 664.57-1.75 664.17-0.9 663.2-0.2 662.22 0.5 660.57 0.5ZM676.02 0.65L676.02 0.65Q672.97 0.65 671.64-1.38 670.32-3.4 670.32-6.6L670.32-6.6Q670.32-7.75 670.44-8.85 670.57-9.95 670.72-11.05L670.72-11.05Q670.87-12.15 671.02-13.2 671.17-14.25 671.27-15.2L671.27-15.2Q670.22-14.9 669.17-14.9L669.17-14.9Q668.07-14.9 668.07-15.8L668.07-15.8Q668.07-16.75 668.92-18.13 669.77-19.5 671.04-20.85 672.32-22.2 673.59-23.13 674.87-24.05 675.77-24.05L675.77-24.05Q676.87-24.05 676.87-22.15L676.87-22.15Q676.87-21.65 676.79-21.13 676.72-20.6 676.62-20.05L676.62-20.05Q677.57-20.25 678.54-20.4 679.52-20.55 680.42-20.55L680.42-20.55Q681.57-20.55 682.19-20.15 682.82-19.75 682.82-18.6L682.82-18.6Q682.82-17.4 682.24-16.2 681.67-15 680.97-15L680.97-15Q680.82-15 680.47-15.05 680.12-15.1 679.62-15.2L679.62-15.2Q678.97-15.35 677.97-15.5 676.97-15.65 675.57-15.65L675.57-15.65Q675.22-14.1 674.94-12.48 674.67-10.85 674.67-9.55L674.67-9.55Q674.67-6.65 676.12-5.6 677.57-4.55 680.32-4.55L680.32-4.55Q681.17-4.55 681.52-4.28 681.87-4 681.87-3.3L681.87-3.3Q681.87-1.65 680.17-0.5 678.47 0.65 676.02 0.65ZM687.02 0.55L687.02 0.55Q686.32 0.55 685.82 0.23 685.32-0.1 685.42-0.65L685.42-0.65Q686.17-4.65 686.69-8.78 687.22-12.9 687.22-17.1L687.22-17.1Q687.22-20.8 686.97-23.8 686.72-26.8 685.37-29.55L685.37-29.55Q685.12-30.1 684.97-30.5 684.82-30.9 684.82-31.25L684.82-31.25Q684.82-32.2 685.94-33.1 687.07-34 688.32-34L688.32-34Q690.07-34 690.72-31.8 691.37-29.6 691.37-25.3L691.37-25.3Q691.37-20.15 690.77-16.32 690.17-12.5 689.72-10.5L689.72-10.5 689.92-10.4Q690.92-13.05 692.34-15.35 693.77-17.65 695.67-19.05 697.57-20.45 700.07-20.45L700.07-20.45Q702.72-20.45 704.09-18.85 705.47-17.25 705.47-14.9L705.47-14.9Q705.47-13.9 705.27-12.98 705.07-12.05 704.82-11.2L704.82-11.2Q704.57-10.4 704.37-9.58 704.17-8.75 704.17-7.9L704.17-7.9Q704.17-6.35 704.92-5.38 705.67-4.4 706.92-4L706.92-4Q707.27-3.9 707.44-3.73 707.62-3.55 707.62-3.1L707.62-3.1Q707.62-2.65 707.32-1.8 707.02-0.95 706.22-0.23 705.42 0.5 703.87 0.5L703.87 0.5Q701.87 0.5 700.77-0.93 699.67-2.35 699.67-4.6L699.67-4.6Q699.67-5.7 699.89-6.85 700.12-8 700.42-9.05L700.42-9.05Q700.67-10.1 700.87-11.03 701.07-11.95 701.07-12.6L701.07-12.6Q701.07-14.9 698.67-14.9L698.67-14.9Q696.67-14.9 695.14-13.48 693.62-12.05 692.54-9.88 691.47-7.7 690.77-5.4L690.77-5.4 690.77-3.7Q690.77-1.85 689.69-0.65 688.62 0.55 687.02 0.55ZM730.91 0.65L730.91 0.65Q729.06 0.65 727.46 0.1 725.86-0.45 724.86-1.45 723.86-2.45 723.86-3.85L723.86-3.85Q723.86-4.6 724.24-5.28 724.61-5.95 725.46-5.95L725.46-5.95Q725.91-5.95 726.41-5.7L726.41-5.7Q727.31-5.2 728.71-4.78 730.11-4.35 731.66-4.35L731.66-4.35Q733.41-4.35 734.76-4.85 736.11-5.35 736.11-6.25L736.11-6.25Q736.11-6.95 735.09-7.25 734.06-7.55 731.66-7.9L731.66-7.9Q730.01-8.2 728.46-8.6 726.91-9 725.91-9.98 724.91-10.95 724.91-12.85L724.91-12.85Q724.91-14.7 725.94-16.43 726.96-18.15 729.01-19.3 731.06-20.45 734.01-20.45L734.01-20.45Q735.56-20.45 737.01-20.1 738.46-19.75 739.41-19.05 740.36-18.35 740.36-17.3L740.36-17.3Q740.36-16.4 739.74-15.65 739.11-14.9 738.29-14.43 737.46-13.95 736.91-13.95L736.91-13.95Q736.51-13.95 735.96-14.5L735.96-14.5Q735.11-15.2 734.09-15.48 733.06-15.75 732.06-15.75L732.06-15.75Q730.56-15.75 729.64-15.3 728.71-14.85 728.71-14.15L728.71-14.15Q728.71-13.5 729.49-13.1 730.26-12.7 731.41-12.53 732.56-12.35 733.61-12.2L733.61-12.2Q736.51-11.8 738.21-10.83 739.91-9.85 739.91-7.4L739.91-7.4Q739.91-5.5 738.84-3.63 737.76-1.75 735.74-0.55 733.71 0.65 730.91 0.65ZM751.51 0.65L751.51 0.65Q748.46 0.65 747.13-1.38 745.81-3.4 745.81-6.6L745.81-6.6Q745.81-7.75 745.93-8.85 746.06-9.95 746.21-11.05L746.21-11.05Q746.36-12.15 746.51-13.2 746.66-14.25 746.76-15.2L746.76-15.2Q745.71-14.9 744.66-14.9L744.66-14.9Q743.56-14.9 743.56-15.8L743.56-15.8Q743.56-16.75 744.41-18.13 745.26-19.5 746.53-20.85 747.81-22.2 749.08-23.13 750.36-24.05 751.26-24.05L751.26-24.05Q752.36-24.05 752.36-22.15L752.36-22.15Q752.36-21.65 752.28-21.13 752.21-20.6 752.11-20.05L752.11-20.05Q753.06-20.25 754.03-20.4 755.01-20.55 755.91-20.55L755.91-20.55Q757.06-20.55 757.68-20.15 758.31-19.75 758.31-18.6L758.31-18.6Q758.31-17.4 757.73-16.2 757.16-15 756.46-15L756.46-15Q756.31-15 755.96-15.05 755.61-15.1 755.11-15.2L755.11-15.2Q754.46-15.35 753.46-15.5 752.46-15.65 751.06-15.65L751.06-15.65Q750.71-14.1 750.43-12.48 750.16-10.85 750.16-9.55L750.16-9.55Q750.16-6.65 751.61-5.6 753.06-4.55 755.81-4.55L755.81-4.55Q756.66-4.55 757.01-4.28 757.36-4 757.36-3.3L757.36-3.3Q757.36-1.65 755.66-0.5 753.96 0.65 751.51 0.65ZM762.36 13.8L762.36 13.8Q760.31 13.8 758.83 12.7 757.36 11.6 757.36 9.75L757.36 9.75Q757.36 8.3 758.23 7.28 759.11 6.25 760.41 6.25L760.41 6.25Q761.01 6.25 761.26 6.45 761.51 6.65 761.66 6.9L761.66 6.9Q762.06 7.55 762.58 8.03 763.11 8.5 764.01 8.5L764.01 8.5Q765.21 8.5 766.33 7.65 767.46 6.8 768.41 5.7L768.41 5.7Q769.26 4.75 770.46 2.98 771.66 1.2 772.86-1.05L772.86-1.05Q771.76-0.1 770.81 0.33 769.86 0.75 769.01 0.75L769.01 0.75Q767.96 0.75 766.96-0.03 765.96-0.8 765.71-2.95L765.71-2.95Q765.56-4.6 765.13-6.6 764.71-8.6 764.08-10.48 763.46-12.35 762.56-13.65L762.56-13.65Q762.21-14.25 761.76-14.55 761.31-14.85 760.46-14.95L760.46-14.95Q759.86-15 759.68-15.3 759.51-15.6 759.51-16.25L759.51-16.25Q759.51-18.05 760.51-19.15 761.51-20.25 763.21-20.25L763.21-20.25Q765.26-20.25 766.16-18.68 767.06-17.1 767.71-14.85L767.71-14.85Q767.96-13.95 768.23-12.48 768.51-11 768.73-9.3 768.96-7.6 769.06-6.05L769.06-6.05Q769.11-4.95 770.31-4.95L770.31-4.95Q771.91-4.95 773.36-5.95 774.81-6.95 775.73-8.55 776.66-10.15 776.66-11.9L776.66-11.9Q776.66-12.9 776.41-13.7 776.16-14.5 775.56-15.1L775.56-15.1Q775.06-15.7 774.76-16.07 774.46-16.45 774.46-16.95L774.46-16.95Q774.46-17.8 775.26-18.55 776.06-19.3 777.18-19.8 778.31-20.3 779.16-20.3L779.16-20.3Q780.66-20.3 781.16-18.88 781.66-17.45 781.41-15.75L781.41-15.75Q781.11-13.4 780.21-10.2 779.31-7 777.88-3.5 776.46 0 774.63 3.28 772.81 6.55 770.76 9L770.76 9Q769.01 11.15 766.86 12.48 764.71 13.8 762.36 13.8ZM788.8 0.5L788.8 0.5Q787.35 0.5 786.65-0.3 785.95-1.1 785.95-3.1L785.95-3.1Q785.95-4.05 786.1-5.55 786.25-7.05 786.45-8.8L786.45-8.8Q786.75-10.95 786.98-13.3 787.2-15.65 787.2-17.8L787.2-17.8Q787.2-20.85 786.93-24.13 786.65-27.4 785.4-29.85L785.4-29.85Q784.95-30.85 784.95-31.3L784.95-31.3Q784.95-31.95 785.53-32.55 786.1-33.15 786.95-33.58 787.8-34 788.6-34L788.6-34Q789.9-34 790.55-32.83 791.2-31.65 791.4-29.63 791.6-27.6 791.6-25L791.6-25Q791.6-21.05 791.28-18.15 790.95-15.25 790.65-13.05L790.65-13.05Q790.45-11.6 790.28-10.3 790.1-9 790.1-7.95L790.1-7.95Q790.1-6.2 790.68-5.43 791.25-4.65 792.55-3.9L792.55-3.9Q792.9-3.7 793.08-3.53 793.25-3.35 793.25-3L793.25-3Q793.25-2.6 792.85-1.75 792.45-0.9 791.48-0.2 790.5 0.5 788.8 0.5ZM804.35 0.65L804.35 0.65Q800.55 0.65 798.43-1.53 796.3-3.7 796.3-7.6L796.3-7.6Q796.3-11.15 797.85-14.05 799.4-16.95 802.03-18.68 804.65-20.4 807.8-20.4L807.8-20.4Q810.8-20.4 812.6-18.93 814.4-17.45 814.4-15L814.4-15Q814.4-13.05 813.2-11.4 812-9.75 810-8.78 808-7.8 805.55-7.8L805.55-7.8Q802.55-7.8 800.65-9.15L800.65-9.15Q800.7-6.85 802.23-5.45 803.75-4.05 806.15-4.05L806.15-4.05Q807.6-4.05 809.13-4.58 810.65-5.1 811.75-6L811.75-6Q812.45-6.6 813.05-6.6L813.05-6.6Q813.55-6.6 813.88-6.28 814.2-5.95 814.2-5.45L814.2-5.45Q814.2-4.35 812.3-2.55L812.3-2.55Q808.95 0.65 804.35 0.65ZM805.1-11.1L805.1-11.1Q806.9-11.1 808.1-11.85 809.3-12.6 809.3-13.75L809.3-13.75Q809.3-14.7 808.5-15.23 807.7-15.75 806.3-15.75L806.3-15.75Q804.45-15.75 803.08-14.78 801.7-13.8 801.1-12.05L801.1-12.05Q801.8-11.6 802.9-11.35 804-11.1 805.1-11.1ZM822.85-8.6L822.85-8.6Q822-8.6 821.7-8.88 821.4-9.15 821.4-9.75L821.4-9.75Q821.4-9.9 821.4-10.18 821.4-10.45 821.45-10.95L821.45-10.95Q821.55-11.95 821.6-13.4 821.65-14.85 821.65-16.55L821.65-16.55Q821.65-20.8 821.25-22.9 820.85-25 820.6-25.95L820.6-25.95Q820.45-26.8 820.45-27.05L820.45-27.05Q820.45-27.85 821.37-28.83 822.3-29.8 824.15-29.8L824.15-29.8Q825.9-29.8 826.37-28.53 826.85-27.25 826.85-24.4L826.85-24.4Q826.85-22.25 826.6-19.65 826.35-17.05 826-14.8 825.65-12.55 825.35-11.35L825.35-11.35Q824.9-9.5 824.32-9.05 823.75-8.6 822.85-8.6ZM822.4 0.4L822.4 0.4Q821 0.4 820.12-0.5 819.25-1.4 819.25-2.8L819.25-2.8Q819.25-4.25 820.2-5.2 821.15-6.15 822.65-6.15L822.65-6.15Q824.05-6.15 824.9-5.3 825.75-4.45 825.75-3.05L825.75-3.05Q825.75-1.55 824.8-0.58 823.85 0.4 822.4 0.4Z" opacity="1" transform="matrix(1,0,0,1,0,0)" fill="#ffffff" class="slogan-text-1" data-fill-palette-color="secondary" id="text-1"></path></svg></g></svg></g></svg></g></svg></g><g transform="matrix(1,0,0,1,414.94120256862533,0)"><svg viewBox="0 0 244.43135999999998 140.3715474977812" height="140.3715474977812" width="244.43135999999998"><g><svg xmlns="http://www.w3.org/2000/svg" xmlns:xlink="http://www.w3.org/1999/xlink" xml:space="preserve" style="shape-rendering:geometricPrecision;text-rendering:geometricPrecision;image-rendering:optimizeQuality;" viewBox="0.00005075480770748626 0.00006680641838767432 65.40854533864807 37.56268724587881" x="0" y="0" fill-rule="evenodd" clip-rule="evenodd" width="244.43135999999998" height="140.3715474977812" class="icon-icon-0" data-fill-palette-color="accent" id="icon-0"><g fill="#fa4238" data-fill-palette-color="accent"><path class="" d="M2.847 3.071c0.092 0.554 0.181 1.112 0.263 1.672 0.644 4.357 0.929 8.884-0.487 13.044-1.268 3.722-2.427 7.315-2.199 11.226-0.036 0.811-0.289 1.237-0.346 2.074-0.035 0.507-0.056 1.004-0.069 1.404-0.034 1.066 0.025 1.354 0.206 2.153 0.077 0.346 0.226 0.477 0.447 0.595 2.316 1.301 7.567 1.889 11.119 1.742 0.863-0.036 1.625-0.067 2.2-0.071 0.007 0 0.015 0 0.023 0 2.856-0.106 6.939-0.168 10.881-0.137 3.223 0.026 6.359 0.115 8.659 0.294l0 0c2.422 0.245 4.323 0.379 6.212 0.444 1.882 0.065 3.75 0.061 6.112 0.029 3.196 0.039 6.859-0.46 10.159-1.168 3.737-0.801 7.03-1.875 8.669-2.741 0.473-0.233 0.563-0.567 0.625-0.907 0.082-0.722 0.119-1.48 0.055-2.31-0.065-0.852-0.236-1.778-0.571-2.818-0.101-0.298-0.294-0.726-0.725-1.021-2.321-1.673-5.456-1.304-8.159-1.264-0.458 0.012-0.977 0.069-1.473 0.087l-0.006-0.009c-0.095 0.004-0.191 0.007-0.286 0.01-0.452-0.095-1.415-0.314-2.232-0.5-0.749-0.171-1.19 0.55-1.318 1.236-0.005 0.044-0.013 0.087-0.021 0.131-0.155 0.753-0.857 1.267-1.642 1.153-0.786-0.113-1.317-0.856-1.215-1.658 0.12-0.948-0.048-1.94-1.513-2.426-0.44-0.146-0.833-0.309-1.226-0.479-1.21-0.52-1.981-0.324-2.694 1.401-0.017 0.041-0.036 0.08-0.055 0.12-0.351 0.684-1.166 0.99-1.893 0.669-0.726-0.32-1.087-1.196-0.748-1.93 0.593-1.285 0.932-2.294-0.522-3.114-0.325-0.184-0.621-0.391-0.928-0.575-1.057-0.634-1.886-1.191-3.216 0.324l-0.601 0.741c-0.027 0.035-0.056 0.068-0.085 0.101-0.522 0.565-1.4 0.632-2.003 0.138-0.625-0.512-0.717-1.435-0.204-2.06 0.161-0.196 0.32-0.395 0.483-0.59 0.789-0.947 1.364-2.084-0.328-3.697-1.139-1.086-1.879-1.567-3.77 0.002l-0.628 0.528c-0.033 0.029-0.068 0.056-0.103 0.083-0.619 0.456-1.494 0.355-1.993-0.244-0.517-0.622-0.432-1.545 0.191-2.062 0.321-0.267 0.632-0.547 0.962-0.801 1.967-1.517 0.894-2.75 0.123-3.596-0.904-0.992-1.552-1.802-3.56-0.289l-0.746 0.603c-0.034 0.029-0.069 0.055-0.105 0.082-0.628 0.444-1.501 0.327-1.987-0.282-0.505-0.631-0.403-1.552 0.228-2.057 0.449-0.359 0.877-0.745 1.345-1.08 1.523-1.091 0.226-3.505-0.641-4.524-0.811-0.953-1.308-0.887-2.371-0.398-0.838 0.386-1.881 1.2-2.447 2.129-2.066 2.986-5.124-0.215-8.107-0.631-1.743-0.243-6.72-1.562-5.739 1.224z m-0.779 27.158c1.691 0.316 4.381 1.662 8.618 1.572 6.634-0.14 13.799-1.071 21.034-0.1 11.462 1.537 18.055 0.866 23.468-1.579 0.535-0.079 0.855-0.952 0.742-1.361-0.21-0.79-0.511-1.614-0.83-2.238-0.057-0.364 0.415-0.349 0.892-0.369 3.682-0.101 5.569-0.219 7.315 0.946 0.402 0.268 0.566 0.474 0.671 0.813 0.292 0.943 0.449 1.783 0.508 2.557 0.151 1.974-0.131 2.416-1.614 3.01-1.706 0.683-4.172 1.41-7 2.016-3.26 0.699-6.868 1.192-10.001 1.153l-0.008 0-0.002 0c-2.349 0.032-4.207-0.105-6.082-0.17-5.036-0.174-9.662-0.554-14.888-0.596-4.339-0.035-8.816 0.03-13.139 0.208-2.972 0.122-6.918-0.277-9.339-1.089-1.148-0.385-1.222-0.459-1.3-1.604-0.063-0.924-0.068-2.318 0.166-2.732 0.217-0.385 0.557-0.449 0.789-0.437z m11.573-20.256c-3.652 0-6.612 2.96-6.611 6.612 0 3.652 2.96 6.612 6.611 6.612 3.652 0 6.612-2.96 6.612-6.612 0-3.652-2.96-6.612-6.612-6.612z" fill="#ffffff" data-fill-palette-color="accent"></path></g></svg></g></svg></g></svg></g><defs></defs></svg><rect width="395.52" height="84.20088674912691" fill="none" stroke="none" visibility="hidden"></rect></g></svg></g></svg>